<?xml version="1.0" standalone="no"?>
<!DOCTYPE svg PUBLIC "-//W3C//DTD SVG 20010904//EN"
 "http://www.w3.org/TR/2001/REC-SVG-20010904/DTD/svg10.dtd">
<svg version="1.0" xmlns="http://www.w3.org/2000/svg"
 width="120.000000pt" height="120.000000pt" viewBox="0 0 120.000000 120.000000"
 preserveAspectRatio="xMidYMid meet">
<metadata>
Created by potrace 1.14, written by Peter Selinger 2001-2017
</metadata>
<g transform="translate(0.000000,120.000000) scale(0.100000,-0.100000)"
fill="#000000" stroke="none">
<path d="M29 1138 c15 -35 36 -81 45 -104 13 -30 26 -44 52 -53 20 -7 38 -10
41 -7 8 7 7 8 -35 27 -29 12 -39 28 -70 104 -21 48 -43 90 -49 93 -7 2 -1 -23
16 -60z"/>
<path d="M130 1146 c0 -53 14 -109 33 -134 8 -10 13 -7 25 10 9 13 24 29 34
36 14 10 17 22 12 55 -12 89 -10 87 -59 87 l-45 0 0 -54z"/>
<path d="M389 1145 l-16 -55 48 0 c27 0 49 3 49 6 0 18 -44 104 -54 104 -6 0
-18 -25 -27 -55z"/>
<path d="M1035 1000 c8 -16 15 -39 16 -52 1 -16 4 -10 11 16 9 34 8 41 -8 53
-29 21 -36 15 -19 -17z"/>
<path d="M403 595 l2 -305 64 0 64 0 -7 125 -6 125 135 0 135 0 0 50 0 50
-129 0 c-72 0 -132 3 -134 8 -3 4 -2 40 0 80 l6 72 158 0 159 0 0 50 0 50
-225 0 -224 0 2 -305z"/>
<path d="M1050 435 c0 -204 -4 -221 -60 -269 -18 -14 -44 -29 -58 -32 -15 -3
-37 -10 -49 -16 -15 -7 -31 -7 -54 1 -20 7 -113 11 -244 11 l-213 0 -6 -33
c-3 -18 -3 -48 0 -65 l7 -32 413 0 414 0 0 248 0 248 -34 17 c-24 11 -36 25
-41 45 -5 26 -15 34 -67 60 -5 2 -8 -80 -8 -183z"/>
</g>
</svg>
